Coordinates
version=1
nRows=29
nColumns=22
inDegrees=yes

Units are S.I. units (second, meters, Newtons, ...)
If the header above contains a line with 'inDegrees', this indicates whether rotational values are in degrees (yes) or radians (no).

endheader
time	pelvis_tilt	pelvis_list	pelvis_rotation	pelvis_tx	pelvis_ty	pelvis_tz	hip_flexion_r	hip_adduction_r	hip_rotation_r	knee_angle_r	ankle_angle_r	subtalar_angle_r	hip_flexion_l	hip_adduction_l	hip_rotation_l	knee_angle_l	ankle_angle_l	subtalar_angle_l	lumbar_extension	lumbar_bending	lumbar_rotation
      2.51000000	      0.34562254	      1.47881008	      0.33133732	     -0.59306925	      0.99223559	     -0.16115670	     28.91476809	     -2.12311345	     -7.15726273	    -18.61647490	      0.81574282	      9.67248832	     -7.22668390	      5.49536121	     -4.61339462	    -13.62415328	     19.61977684	     -3.70873402	    -15.94011810	     -2.28374325	     -4.09553582
      2.52000000	      0.38795911	      1.48776984	      0.28349043	     -0.58248963	      0.99048684	     -0.16023621	     28.76200397	     -1.90600459	     -7.12436710	    -16.79143060	      0.67035469	     10.31805071	     -8.01640645	      5.43748267	     -4.67730280	    -13.51754055	     19.90142314	     -3.45482344	    -15.89975976	     -2.31622516	     -4.08638178
      2.53000000	      0.45066884	      1.48810576	      0.27897073	     -0.57173165	      0.98873140	     -0.15937783	     28.60133933	     -1.70794760	     -7.08212521	    -15.33135493	      0.72044063	     10.83590934	     -8.80954446	      5.36326358	     -4.66689409	    -13.46491067	     20.16736292	     -3.17047532	    -15.87273159	     -2.32048636	     -4.11411035
      2.54000000	      0.53960989	      1.46407797	      0.32019707	     -0.56081368	      0.98700043	     -0.15856422	     28.43113777	     -1.51181032	     -7.03767629	    -14.26811484	      0.94128501	     11.16718242	     -9.58453501	      5.24967997	     -4.58991674	    -13.51962221	     20.41667777	     -2.86121637	    -15.86865908	     -2.28219723	     -4.15636821
      2.55000000	      0.63991772	      1.40932422	      0.40512411	     -0.54974156	      0.98530270	     -0.15777446	     28.27181832	     -1.30734613	     -6.98577972	    -13.61926271	      1.22560445	     11.27282194	    -10.32155770	      5.08678212	     -4.46220383	    -13.68491275	     20.62226098	     -2.52240287	    -15.86932474	     -2.19774827	     -4.21526117
      2.56000000	      0.74375948	      1.31397590	      0.52180875	     -0.53851186	      0.98365374	     -0.15699966	     28.13508021	     -1.07867132	     -6.91740758	    -13.38615175	      1.43394357	     11.12140130	    -11.01125376	      4.86754629	     -4.28414392	    -13.96249047	     20.79905661	     -2.14634227	    -15.86330234	     -2.05472496	     -4.27302711
      2.57000000	      0.83950446	      1.17417012	      0.66739106	     -0.52713316	      0.98206092	     -0.15622363	     28.04346705	     -0.81979689	     -6.82578186	    -13.56676169	      1.45020806	     10.68378529	    -11.63715444	      4.58639363	     -4.07107765	    -14.35581130	     20.93281267	     -1.74022147	    -15.83560530	     -1.85097373	     -4.33921549
      2.58000000	      0.91632977	      0.98363318	      0.85109065	     -0.51563567	      0.98053804	     -0.15545311	     28.00640034	     -0.52835022	     -6.72562156	    -14.11658623	      1.17337848	      9.98937816	    -12.16205409	      4.23328151	     -3.83381015	    -14.90716620	     21.01202246	     -1.33178101	    -15.77752026	     -1.57883231	     -4.40887951
      2.59000000	      0.97054665	      0.75652456	      1.02095991	     -0.50396693	      0.97909768	     -0.15463849	     28.04677732	     -0.19779470	     -6.58313473	    -15.00965809	      0.52781040	      8.95120850	    -12.63183392	      3.84466179	     -3.56354013	    -15.52527493	     21.03343147	     -0.84908233	    -15.67358743	     -1.26200082	     -4.45180013
      2.60000000	      1.00455442	      0.48261762	      1.20612823	     -0.49219126	      0.97778416	     -0.15382245	     28.15119502	      0.16453892	     -6.44530068	    -16.16192473	     -0.46452206	      7.68894949	    -12.99785132	      3.39989669	     -3.27592814	    -16.29738706	     20.95479637	     -0.34082091	    -15.53779780	     -0.88241105	     -4.48843460
      2.61000000	      1.02455598	      0.16823848	      1.38382809	     -0.48028834	      0.97662879	     -0.15300366	     28.31820623	      0.55493131	     -6.31898397	    -17.52512207	     -1.65719728	      6.25897915	    -13.28036396	      2.91646324	     -2.97992246	    -17.19799591	     20.76988684	      0.21740068	    -15.37358127	     -0.44843418	     -4.50274659
      2.62000000	      1.04238698	     -0.17699202	      1.54119008	     -0.46827435	      0.97567533	     -0.15218724	     28.52799493	      0.96403421	     -6.20428678	    -19.04155114	     -2.83940486	      4.77231492	    -13.48819813	      2.41145785	     -2.68211077	    -18.23138040	     20.44942427	      0.83985874	    -15.19884434	      0.02901373	     -4.48408708
      2.63000000	      1.06848026	     -0.55721823	      1.66504642	     -0.45616234	      0.97495881	     -0.15136263	     28.75630926	      1.40016299	     -6.09719910	    -20.66411035	     -3.80651510	      3.40991641	    -13.62310307	      1.88411553	     -2.40429476	    -19.41118375	     19.98610442	      1.50645360	    -15.02789711	      0.55348579	     -4.42932859
      2.64000000	      1.11425548	     -0.96077062	      1.74572945	     -0.44397950	      0.97451867	     -0.15050950	     28.96033192	      1.86495746	     -5.97165174	    -22.32136039	     -4.42723193	      2.22271589	    -13.68723848	      1.34960638	     -2.15733180	    -20.75281241	     19.33162112	      2.23075306	    -14.88016088	      1.10715647	     -4.33785262
      2.65000000	      1.18503752	     -1.38407849	      1.78600839	     -0.43173156	      0.97437726	     -0.14961669	     29.09462316	      2.36551167	     -5.81475971	    -23.93986140	     -4.64238736	      1.23545137	    -13.68104477	      0.81031956	     -1.93861483	    -22.25690703	     18.43581126	      3.01530234	    -14.76160045	      1.68451013	     -4.20605862
      2.66000000	      1.27201917	     -1.84051947	      1.79766276	     -0.41948502	      0.97450257	     -0.14867177	     29.14197884	      2.91370853	     -5.67253969	    -25.45667654	     -4.53507224	      0.48322261	    -13.54987179	      0.23522153	     -1.81865514	    -23.99372792	     17.36268275	      3.78299158	    -14.67003522	      2.29922310	     -4.06307389
      2.67000000	      1.38574994	     -2.27864058	      1.78114081	     -0.40723397	      0.97493883	     -0.14767739	     29.06003776	      3.46152671	     -5.54183569	    -26.82172815	     -4.10588721	     -0.14634524	    -13.32981282	     -0.31339218	     -1.72474447	    -25.90214491	     15.97079755	      4.61042031	    -14.61690957	      2.88602686	     -3.89496666
      2.68000000	      1.49954764	     -2.73180412	      1.77347379	     -0.39506014	      0.97560482	     -0.14665550	     28.85452234	      4.02555910	     -5.47091513	    -27.97768098	     -3.47253569	     -0.61666064	    -12.93504975	     -0.90299241	     -1.73242348	    -28.06282210	     14.36429667	      5.33935102	    -14.57499329	      3.48769747	     -3.75928240
      2.69000000	      1.61345898	     -3.15090991	      1.78045870	     -0.38298765	      0.97650566	     -0.14563604	     28.52263414	      4.54762631	     -5.47108436	    -28.91988209	     -2.68375249	     -0.99798069	    -12.38445078	     -1.47849178	     -1.78324550	    -30.41739357	     12.46343170	      5.99958152	    -14.54573835	      4.04740820	     -3.64184171
      2.70000000	      1.71611193	     -3.53767176	      1.82043733	     -0.37107123	      0.97758553	     -0.14462139	     28.08007583	      5.02154933	     -5.55119868	    -29.64523624	     -1.81200080	     -1.30254995	    -11.64996976	     -2.05946716	     -1.88580961	    -32.96972656	     10.33090606	      6.51724806	    -14.51614228	      4.56174605	     -3.55778554
      2.71000000	      1.79707611	     -3.89203344	      1.89616882	     -0.35934577	      0.97879325	     -0.14362929	     27.54787146	      5.44597810	     -5.70383239	    -30.16291161	     -0.89998996	     -1.55117344	    -10.72405760	     -2.64672005	     -2.01775804	    -35.69529559	      8.02659862	      6.86133262	    -14.47747620	      5.03134510	     -3.49301219
      2.72000000	      1.85667801	     -4.22090800	      2.01268649	     -0.34784616	      0.98009154	     -0.14267523	     26.94623999	      5.82867331	     -5.91309010	    -30.50082007	      0.00876862	     -1.75471861	     -9.61190945	     -3.24787407	     -2.15696336	    -38.56677568	      5.63475780	      7.02034198	    -14.42985933	      5.46550089	     -3.44393991
      2.73000000	      1.87254394	     -4.52065666	      2.16707617	     -0.33659906	      0.98140069	     -0.14176590	     26.31788816	      6.16592772	     -6.17188250	    -30.68333634	      0.89047262	     -1.93649046	     -8.29388419	     -3.85689421	     -2.29546540	    -41.56136368	      3.26129903	      7.01428252	    -14.34808785	      5.85629970	     -3.39668854
      2.74000000	      1.82616543	     -4.79624068	      2.34018270	     -0.32562177	      0.98264202	     -0.14088133	     25.71840590	      6.47706117	     -6.42947376	    -30.76991657	      1.74974815	     -2.10568943	     -6.77322348	     -4.45659767	     -2.39549164	    -44.62908878	      0.98584925	      6.80234107	    -14.21213027	      6.20530343	     -3.32094535
      2.75000000	      1.83831919	     -5.11887947	      2.55267248	     -0.31485816	      0.98402088	     -0.14006064	     24.99472218	      6.83973202	     -6.70534464	    -30.70409007	      2.47219659	     -2.20624629	     -5.20853344	     -5.12961930	     -2.46111245	    -47.70044428	     -1.10408709	      6.56600825	    -14.15997293	      6.60798891	     -3.21599353
      2.76000000	      1.81415560	     -5.41735282	      2.75460022	     -0.30432167	      0.98531813	     -0.13924223	     24.30002811	      7.19426529	     -6.93435895	    -30.59142471	      3.17210004	     -2.31126343	     -3.52205223	     -5.78434278	     -2.52327069	    -50.72932123	     -2.90131032	      6.28524954	    -14.08278592	      6.96705931	     -3.06130349
      2.77000000	      1.79746287	     -5.70546145	      2.93832192	     -0.29396375	      0.98660662	     -0.13842474	     23.58644081	      7.56227174	     -7.10682357	    -30.43308623	      3.82633519	     -2.41564931	     -1.79678640	     -6.42713786	     -2.58185935	    -53.64130714	     -4.30953307	      6.05304369	    -14.02767360	      7.30088079	     -2.84179438
      2.78000000	      1.76992122	     -5.96468275	      3.09518156	     -0.28376729	      0.98786887	     -0.13762381	     22.87710941	      7.92172740	     -7.21755142	    -30.24170553	      4.45495002	     -2.53460969	     -0.04023086	     -7.01337936	     -2.60607941	    -56.38045385	     -5.24215066	      5.88174978	    -13.97366901	      7.58757992	     -2.51896163
      2.79000000	      1.81773034	     -6.21081787	      3.22663207	     -0.27367899	      0.98927423	     -0.13683113	     22.06008259	      8.30334578	     -7.23414979	    -29.98547653	      5.00345044	     -2.64349614	      1.62654715	     -7.57763074	     -2.64425102	    -58.88730572	     -5.69438580	      5.79459423	    -14.01623583	      7.85484333	     -2.15271069
